<?xml version="1.0" encoding="utf-8"?>
<!-- Generator: Adobe Illustrator 21.0.0, SVG Export Plug-In . SVG Version: 6.00 Build 0)  -->
<svg version="1.1" id="Layer_1" xmlns="http://www.w3.org/2000/svg" xmlns:xlink="http://www.w3.org/1999/xlink" x="0px" y="0px"
	 viewBox="0 0 3198.8 3198.8" style="enable-background:new 0 0 3198.8 3198.8;" xml:space="preserve">
<style type="text/css">
	.st0{fill:url(#SVGID_1_);}
</style>
<title>devshop icon</title>
<linearGradient id="SVGID_1_" gradientUnits="userSpaceOnUse" x1="988.5613" y1="800.1281" x2="3186.335" y2="-468.7539" gradientTransform="matrix(1 0 0 1 -1038.52 1326.6)">
	<stop  offset="0" style="stop-color:#00C6FF"/>
	<stop  offset="0.19" style="stop-color:#00BFFF"/>
	<stop  offset="0.45" style="stop-color:#00ACFF"/>
	<stop  offset="0.77" style="stop-color:#008EFF"/>
	<stop  offset="1" style="stop-color:#0072FF"/>
</linearGradient>
<path class="st0" d="M1943.6,1612.4c0.5-7.5-2.3-14.3-6.4-20.4c-5.4-8-11.3-15.7-17.6-23c-65.9-74.7-132.1-149.1-197.8-224
	c-83.5-95.1-166.4-190.8-250.1-285.9c-63-71.5-126.8-142.3-190.2-213.4c-58.1-65.1-116.2-130.2-174.4-195.3
	c-17.6-19.6-35.2-39.1-53.3-58.2c-16.6-17.5-22.9-38.1-19.1-61.5c9-56.2,18.3-112.3,28-168.4c10.1-59.4,20.6-118.7,30.9-178
	c8.3-47.5,16.6-95,25-142.5c1.1-6.2,1.8-12.5,3.3-18.7c2.1-8.6,5.9-17.3,14.6-21.4c8.4-3.2,14.4-2.2,21.3,5.7
	c0.2,0.3,131.6,152.7,168.7,194.6c55.6,62.9,111.3,125.7,166.2,189.2c70.2,81.2,139.4,163.1,209.5,244.4
	c47.7,55.2,95.6,110.3,144.5,164.4c106.5,117.5,212.2,235.8,315.3,356.2c73,85.3,146.5,170.2,220.6,254.5
	c50.2,57.4,101.2,114.2,151.8,171.2c27.4,30.9,55.2,61.5,82.3,92.7c6.9,8.1,12.8,17,17.7,26.4c6.8,12.8,4.7,25.6-5,36.1
	c-7.4,8.1-15.6,15.5-24.4,22c-43.8,31.5-88,62.5-132,93.8c-113.8,80.8-227.6,161.7-341.3,242.6c-158.9,113.4-317.7,227-476.5,340.7
	c-192.4,137.6-384.8,275.2-577.3,412.8c-152.1,108.7-304.3,217.2-456.5,325.7c-8.7,6.2-16.9,13-25.6,19.1
	c-7.2,5.1-15.2,6.8-23.6,2.6c-9.2-4.6-13.2-11.9-11.5-23.1c2-12.8,5-25.5,7.3-38.2c9.8-54.7,19.5-109.4,29.2-164.1
	c9.8-55,19.6-110,29.4-165.1c9.6-54.4,19.2-108.8,28.7-163.2c10.4-59,20.8-118,31.3-176.9c9.5-54.1,19-108.2,28.5-162.2l31.5-177.9
	c11-62.6,21.8-125.2,32.9-187.8c9.6-54.1,19.4-108.1,29-162.1c9.7-54.4,19.2-108.8,28.9-163.2c7-39.3,14.3-78.6,21.4-117.8
	c4.3-23.8,16.4-42.7,35.8-56.9c31.5-22.9,63.3-45.6,94.9-68.3c108.3-77.7,216.6-155.4,324.8-233.2c3.5-2.6,7.1-4.9,10.9-7
	c7-3.8,13.5-2.2,19.6,2.3c6.3,4.7,6.6,10.9,5.2,17.9c-7.4,38.5-14.8,77.1-21.9,115.7c-9.2,50.4-18,100.9-26.9,151.3
	c-9.7,54.7-19.4,109.4-29.2,164.1c-10.4,58.3-20.8,116.6-31.3,174.9c-10.9,60.9-21.8,121.8-32.8,182.8
	c-8.3,46.2-16.6,92.4-24.8,138.6c-2.9,16.4-6,32.7-8.6,49.2c-0.8,5.3-1,10.6-0.6,15.9c1,16.3,15.6,25.6,30.6,19.2
	c5.2-2.3,10.1-5.2,14.6-8.6c126.7-91.5,253.3-183.1,379.9-274.7c104.9-75.6,209.9-151,315-226.3c7.3-5.3,14.1-11.2,20.3-17.6
	C1940.2,1628.3,1944,1621.2,1943.6,1612.4z"/>
</svg>
